<mxfile host="app.diagrams.net" agent="Mozilla/5.0 (Windows NT 10.0; Win64; x64; rv:129.0) Gecko/20100101 Firefox/129.0" version="24.7.8">
  <diagram name="Page-1" id="urToz_TxoqsLqZ5IQnIK">
    <mxGraphModel grid="1" page="1" gridSize="10" guides="1" tooltips="1" connect="1" arrows="1" fold="1" pageScale="1" pageWidth="827" pageHeight="1169" math="0" shadow="0">
      <root>
        <mxCell id="0" />
        <mxCell id="1" parent="0" />
        <mxCell id="4MbK3a_Zt9pyAfJg-caS-10" style="edgeStyle=orthogonalEdgeStyle;rounded=0;orthogonalLoop=1;jettySize=auto;html=1;" edge="1" parent="1" source="4MbK3a_Zt9pyAfJg-caS-1" target="4MbK3a_Zt9pyAfJg-caS-8">
          <mxGeometry relative="1" as="geometry">
            <Array as="points">
              <mxPoint x="130" y="480" />
              <mxPoint x="130" y="320" />
            </Array>
          </mxGeometry>
        </mxCell>
        <mxCell id="4MbK3a_Zt9pyAfJg-caS-14" style="edgeStyle=orthogonalEdgeStyle;rounded=0;orthogonalLoop=1;jettySize=auto;html=1;entryX=0;entryY=0.5;entryDx=0;entryDy=0;" edge="1" parent="1" target="4MbK3a_Zt9pyAfJg-caS-13">
          <mxGeometry relative="1" as="geometry">
            <mxPoint x="70" y="480" as="sourcePoint" />
            <Array as="points">
              <mxPoint x="70" y="481" />
              <mxPoint x="130" y="481" />
              <mxPoint x="130" y="415" />
            </Array>
          </mxGeometry>
        </mxCell>
        <mxCell id="4MbK3a_Zt9pyAfJg-caS-25" style="edgeStyle=orthogonalEdgeStyle;rounded=0;orthogonalLoop=1;jettySize=auto;html=1;entryX=0;entryY=0.5;entryDx=0;entryDy=0;" edge="1" parent="1" target="4MbK3a_Zt9pyAfJg-caS-24">
          <mxGeometry relative="1" as="geometry">
            <mxPoint x="70" y="480" as="sourcePoint" />
            <Array as="points">
              <mxPoint x="70" y="481" />
              <mxPoint x="130" y="481" />
              <mxPoint x="130" y="535" />
            </Array>
          </mxGeometry>
        </mxCell>
        <mxCell id="4MbK3a_Zt9pyAfJg-caS-1" value="Admin" style="shape=umlActor;verticalLabelPosition=bottom;verticalAlign=top;html=1;" vertex="1" parent="1">
          <mxGeometry x="50" y="440" width="30" height="60" as="geometry" />
        </mxCell>
        <mxCell id="4MbK3a_Zt9pyAfJg-caS-9" style="edgeStyle=orthogonalEdgeStyle;rounded=0;orthogonalLoop=1;jettySize=auto;html=1;" edge="1" parent="1" source="4MbK3a_Zt9pyAfJg-caS-2" target="4MbK3a_Zt9pyAfJg-caS-8">
          <mxGeometry relative="1" as="geometry">
            <Array as="points">
              <mxPoint x="125" y="100" />
              <mxPoint x="125" y="290" />
            </Array>
          </mxGeometry>
        </mxCell>
        <mxCell id="4MbK3a_Zt9pyAfJg-caS-12" style="edgeStyle=orthogonalEdgeStyle;rounded=0;orthogonalLoop=1;jettySize=auto;html=1;" edge="1" parent="1" source="4MbK3a_Zt9pyAfJg-caS-2" target="4MbK3a_Zt9pyAfJg-caS-11">
          <mxGeometry relative="1" as="geometry" />
        </mxCell>
        <mxCell id="4MbK3a_Zt9pyAfJg-caS-17" style="edgeStyle=orthogonalEdgeStyle;rounded=0;orthogonalLoop=1;jettySize=auto;html=1;entryX=0;entryY=0.5;entryDx=0;entryDy=0;" edge="1" parent="1" source="4MbK3a_Zt9pyAfJg-caS-2" target="4MbK3a_Zt9pyAfJg-caS-15">
          <mxGeometry relative="1" as="geometry" />
        </mxCell>
        <mxCell id="4MbK3a_Zt9pyAfJg-caS-2" value="User" style="shape=umlActor;verticalLabelPosition=bottom;verticalAlign=top;html=1;" vertex="1" parent="1">
          <mxGeometry x="60" y="70" width="30" height="60" as="geometry" />
        </mxCell>
        <mxCell id="4MbK3a_Zt9pyAfJg-caS-8" value="Log in" style="ellipse;whiteSpace=wrap;html=1;" vertex="1" parent="1">
          <mxGeometry x="160" y="270" width="140" height="70" as="geometry" />
        </mxCell>
        <mxCell id="4MbK3a_Zt9pyAfJg-caS-11" value="Register" style="ellipse;whiteSpace=wrap;html=1;" vertex="1" parent="1">
          <mxGeometry x="160" y="65" width="140" height="70" as="geometry" />
        </mxCell>
        <mxCell id="4MbK3a_Zt9pyAfJg-caS-32" style="edgeStyle=orthogonalEdgeStyle;rounded=0;orthogonalLoop=1;jettySize=auto;html=1;" edge="1" parent="1" source="4MbK3a_Zt9pyAfJg-caS-13" target="4MbK3a_Zt9pyAfJg-caS-31">
          <mxGeometry relative="1" as="geometry" />
        </mxCell>
        <mxCell id="4MbK3a_Zt9pyAfJg-caS-13" value="Crud movies" style="ellipse;whiteSpace=wrap;html=1;" vertex="1" parent="1">
          <mxGeometry x="160" y="380" width="140" height="70" as="geometry" />
        </mxCell>
        <mxCell id="4MbK3a_Zt9pyAfJg-caS-22" style="edgeStyle=orthogonalEdgeStyle;rounded=0;orthogonalLoop=1;jettySize=auto;html=1;exitX=1;exitY=0.5;exitDx=0;exitDy=0;entryX=0;entryY=0.5;entryDx=0;entryDy=0;" edge="1" parent="1" source="4MbK3a_Zt9pyAfJg-caS-15" target="4MbK3a_Zt9pyAfJg-caS-20">
          <mxGeometry relative="1" as="geometry" />
        </mxCell>
        <mxCell id="4MbK3a_Zt9pyAfJg-caS-15" value="Select movie from list" style="ellipse;whiteSpace=wrap;html=1;" vertex="1" parent="1">
          <mxGeometry x="160" y="180" width="140" height="70" as="geometry" />
        </mxCell>
        <mxCell id="4MbK3a_Zt9pyAfJg-caS-23" style="edgeStyle=orthogonalEdgeStyle;rounded=0;orthogonalLoop=1;jettySize=auto;html=1;exitX=1;exitY=0.5;exitDx=0;exitDy=0;entryX=0;entryY=0.5;entryDx=0;entryDy=0;" edge="1" parent="1" source="4MbK3a_Zt9pyAfJg-caS-38" target="4MbK3a_Zt9pyAfJg-caS-21">
          <mxGeometry relative="1" as="geometry" />
        </mxCell>
        <mxCell id="4MbK3a_Zt9pyAfJg-caS-20" value="Select auditorium from list" style="ellipse;whiteSpace=wrap;html=1;" vertex="1" parent="1">
          <mxGeometry x="480" y="180" width="140" height="70" as="geometry" />
        </mxCell>
        <mxCell id="4MbK3a_Zt9pyAfJg-caS-21" value="Reserve seat" style="ellipse;whiteSpace=wrap;html=1;" vertex="1" parent="1">
          <mxGeometry x="800" y="180" width="140" height="70" as="geometry" />
        </mxCell>
        <mxCell id="4MbK3a_Zt9pyAfJg-caS-35" style="edgeStyle=orthogonalEdgeStyle;rounded=0;orthogonalLoop=1;jettySize=auto;html=1;" edge="1" parent="1" source="4MbK3a_Zt9pyAfJg-caS-24" target="4MbK3a_Zt9pyAfJg-caS-34">
          <mxGeometry relative="1" as="geometry" />
        </mxCell>
        <mxCell id="4MbK3a_Zt9pyAfJg-caS-24" value="View movie statistic from list" style="ellipse;whiteSpace=wrap;html=1;" vertex="1" parent="1">
          <mxGeometry x="160" y="500" width="140" height="70" as="geometry" />
        </mxCell>
        <mxCell id="4MbK3a_Zt9pyAfJg-caS-26" value="View auditorium statistic from list" style="ellipse;whiteSpace=wrap;html=1;" vertex="1" parent="1">
          <mxGeometry x="490" y="500" width="140" height="70" as="geometry" />
        </mxCell>
        <mxCell id="4MbK3a_Zt9pyAfJg-caS-28" value="Add/Remove auditorium to showtime" style="ellipse;whiteSpace=wrap;html=1;" vertex="1" parent="1">
          <mxGeometry x="480" y="380" width="140" height="70" as="geometry" />
        </mxCell>
        <mxCell id="4MbK3a_Zt9pyAfJg-caS-30" value="Select showtime from list" style="ellipse;whiteSpace=wrap;html=1;" vertex="1" parent="1">
          <mxGeometry x="320" y="180" width="140" height="70" as="geometry" />
        </mxCell>
        <mxCell id="4MbK3a_Zt9pyAfJg-caS-33" style="edgeStyle=orthogonalEdgeStyle;rounded=0;orthogonalLoop=1;jettySize=auto;html=1;" edge="1" parent="1" source="4MbK3a_Zt9pyAfJg-caS-31" target="4MbK3a_Zt9pyAfJg-caS-28">
          <mxGeometry relative="1" as="geometry" />
        </mxCell>
        <mxCell id="4MbK3a_Zt9pyAfJg-caS-31" value="Crud showtimes" style="ellipse;whiteSpace=wrap;html=1;" vertex="1" parent="1">
          <mxGeometry x="320" y="380" width="140" height="70" as="geometry" />
        </mxCell>
        <mxCell id="4MbK3a_Zt9pyAfJg-caS-36" style="edgeStyle=orthogonalEdgeStyle;rounded=0;orthogonalLoop=1;jettySize=auto;html=1;entryX=0;entryY=0.5;entryDx=0;entryDy=0;" edge="1" parent="1" source="4MbK3a_Zt9pyAfJg-caS-34" target="4MbK3a_Zt9pyAfJg-caS-26">
          <mxGeometry relative="1" as="geometry" />
        </mxCell>
        <mxCell id="4MbK3a_Zt9pyAfJg-caS-34" value="View showtime statistic from list" style="ellipse;whiteSpace=wrap;html=1;" vertex="1" parent="1">
          <mxGeometry x="320" y="500" width="140" height="70" as="geometry" />
        </mxCell>
        <mxCell id="4MbK3a_Zt9pyAfJg-caS-39" value="" style="edgeStyle=orthogonalEdgeStyle;rounded=0;orthogonalLoop=1;jettySize=auto;html=1;exitX=1;exitY=0.5;exitDx=0;exitDy=0;entryX=0;entryY=0.5;entryDx=0;entryDy=0;" edge="1" parent="1" source="4MbK3a_Zt9pyAfJg-caS-20" target="4MbK3a_Zt9pyAfJg-caS-38">
          <mxGeometry relative="1" as="geometry">
            <mxPoint x="620" y="215" as="sourcePoint" />
            <mxPoint x="820" y="215" as="targetPoint" />
          </mxGeometry>
        </mxCell>
        <mxCell id="4MbK3a_Zt9pyAfJg-caS-38" value="Select seat from diagram" style="ellipse;whiteSpace=wrap;html=1;" vertex="1" parent="1">
          <mxGeometry x="640" y="180" width="140" height="70" as="geometry" />
        </mxCell>
      </root>
    </mxGraphModel>
  </diagram>
</mxfile>
